Coordinates
version=1
nRows=17
nColumns=24
inDegrees=yes

Units are S.I. units (second, meters, Newtons, ...)
Angles are in degrees.

endheader
time	pelvis_tilt	pelvis_list	pelvis_rotation	pelvis_tx	pelvis_ty	pelvis_tz	hip_flexion_r	hip_adduction_r	hip_rotation_r	knee_angle_r	ankle_angle_r	subtalar_angle_r	mtp_angle_r	hip_flexion_l	hip_adduction_l	hip_rotation_l	knee_angle_l	ankle_angle_l	subtalar_angle_l	mtp_angle_l	lumbar_extension	lumbar_bending	lumbar_rotation
      1.31700000	     -4.82180885	      4.31164764	     -2.91906802	      0.25850670	      0.90714343	      0.32097517	     19.20576201	     -9.18029233	    -10.35370840	    -70.92927715	     -3.49978508	      3.72652939	     11.01462717	     14.55524525	      8.02553211	     -2.37988909	    -15.62764261	      6.23675368	     -8.18019489	      3.73198239	     -3.20873771	     -6.67012512	      3.39150986
      1.32116667	     -4.83909669	      4.14787146	     -2.77944583	      0.26354499	      0.90817457	      0.32073363	     19.81892478	     -9.02134476	    -10.57430470	    -70.64824825	     -2.89334915	      3.58038423	     10.59278682	     13.92659350	      7.93499793	     -2.03453842	    -15.05830327	      6.16771810	     -8.33238280	      3.71093327	     -3.25737371	     -6.46363119	      2.91405734
      1.32533333	     -4.86155708	      3.93040386	     -2.63367145	      0.26858891	      0.90918543	      0.32052812	     20.40367757	     -8.78958201	    -10.81175938	    -70.27054367	     -2.30799182	      3.41667924	     10.51134830	     13.34544793	      7.76004602	     -1.82731477	    -14.59088507	      6.22577416	     -8.22867814	      3.70901126	     -3.27084107	     -6.18396638	      2.82421996
      1.32950000	     -4.87942032	      3.72204952	     -2.48429573	      0.27365406	      0.91018489	      0.32033781	     20.96175019	     -8.56124194	    -11.04496229	    -69.81598060	     -1.74244692	      3.24946970	     10.45266338	     12.75086619	      7.59050514	     -1.62444842	    -14.09898540	      6.24896625	     -8.13888497	      3.70744020	     -3.26119624	     -5.96215074	      2.67202459
      1.33366667	     -4.83536709	      3.49931832	     -2.31519489	      0.27870205	      0.91126690	      0.32007671	     21.42602388	     -8.33296924	    -11.30664518	    -69.28307111	     -1.26620043	      3.13837122	     10.28822030	     12.05981344	      7.42623849	     -1.29061934	    -13.54409229	      6.26728387	     -8.18570136	      3.69847667	     -3.38540515	     -5.67731212	      2.26700650
      1.33783333	     -4.82765723	      3.27588047	     -2.13777919	      0.28372656	      0.91225170	      0.31985456	     21.91505790	     -8.09144637	    -11.56629634	    -68.69033469	     -0.75032448	      3.00558875	     10.16009262	     11.43581355	      7.24365091	     -1.01963798	    -13.03675159	      6.26018356	     -8.16073081	      3.69073944	     -3.43620952	     -5.42875529	      2.02795581
      1.34200000	     -4.79335878	      3.07990259	     -1.95283417	      0.28876598	      0.91322570	      0.31958214	     22.36183744	     -7.89570272	    -11.83916344	    -68.04820484	     -0.25480131	      2.86460442	      9.87988666	     10.76357232	      7.09738083	     -0.71946294	    -12.48006660	      6.20044982	     -8.22500658	      3.66993300	     -3.50746621	     -5.19728492	      1.63951882
      1.34616667	     -4.75106959	      2.83823527	     -1.76249126	      0.29378372	      0.91419498	      0.31932732	     22.77035069	     -7.64096570	    -12.12223324	    -67.31528806	      0.17897335	      2.76106425	      9.72653227	     10.10650406	      6.88906620	     -0.45855598	    -11.97687314	      6.24220969	     -8.16827308	      3.65973854	     -3.59817849	     -4.89562707	      1.44003616
      1.35033333	     -4.70368085	      2.62009133	     -1.55289271	      0.29878995	      0.91511951	      0.31905299	     23.15760758	     -7.41829211	    -12.41767593	    -66.53322681	      0.63881750	      2.64042908	      9.43887007	      9.44021014	      6.70683861	     -0.16887524	    -11.45116277	      6.18674287	     -8.19789862	      3.63684061	     -3.69053587	     -4.64493819	      1.07242327
      1.35450000	     -4.66376306	      2.36382390	     -1.33666819	      0.30376574	      0.91600588	      0.31880044	     23.52659014	     -7.14331327	    -12.71807843	    -65.66537063	      1.05230610	      2.54627935	      9.36897917	      8.81590623	      6.46890693	      0.06508666	    -10.99709634	      6.22002869	     -8.09430892	      3.63273226	     -3.78152695	     -4.35106678	      0.94627474
      1.35866667	     -4.55910570	      2.14068362	     -1.12949880	      0.30876337	      0.91692922	      0.31851795	     23.81569967	     -6.91494257	    -13.01307183	    -64.75272969	      1.38942964	      2.42370311	      9.23295132	      8.08211850	      6.27207054	      0.34619956	    -10.45415216	      6.24915682	     -8.06846628	      3.62283316	     -3.95304186	     -4.06868254	      0.58868577
      1.36283333	     -4.47760194	      1.91050012	     -0.90543341	      0.31373649	      0.91777171	      0.31824426	     24.10940770	     -6.67646244	    -13.32009093	    -63.77801996	      1.74255488	      2.31533144	      9.10628579	      7.39579601	      6.05818255	      0.61265924	     -9.94894665	      6.25384137	     -8.03695337	      3.61314145	     -4.08732917	     -3.79599408	      0.29111849
      1.36700000	     -4.40901064	      1.67207873	     -0.66241115	      0.31866632	      0.91854772	      0.31796812	     24.39642991	     -6.42683588	    -13.63867398	    -62.73890015	      2.09989621	      2.21298834	      9.02331521	      6.75553009	      5.82632357	      0.84596912	     -9.49808228	      6.23905808	     -7.96797386	      3.60712720	     -4.21211990	     -3.52201218	      0.06487394
      1.37116667	     -4.31000381	      1.44932767	     -0.42798178	      0.32360893	      0.91930641	      0.31769142	     24.63906597	     -6.19388754	    -13.94564985	    -61.65224481	      2.40052249	      2.09385012	      8.93716711	      6.06406415	      5.60706882	      1.09118667	     -9.00560713	      6.24868707	     -7.90440537	      3.60217768	     -4.37131704	     -3.25004492	     -0.22052133
      1.37533333	     -4.18280182	      1.25942474	     -0.20678302	      0.32855038	      0.92003245	      0.31742608	     24.84819556	     -5.99321693	    -14.22936759	    -60.53164565	      2.63411052	      1.95658705	      8.78477675	      5.31887891	      5.42179659	      1.36421932	     -8.46082787	      6.27664515	     -7.90058676	      3.59390472	     -4.56554119	     -3.01208389	     -0.63893498
      1.37950000	     -4.07952628	      1.05865273	      0.03491375	      0.33346623	      0.92067427	      0.31715697	     25.05885817	     -5.77854962	    -14.52535198	    -59.34603836	      2.88277290	      1.83115532	      8.63721791	      4.63240979	      5.21498472	      1.60949712	     -7.97548180	      6.28153760	     -7.85724905	      3.58679473	     -4.72713192	     -2.77102767	     -0.95559264
      1.38366667	     -3.97207757	      0.86909522	      0.27482390	      0.33837219	      0.92125900	      0.31690259	     25.25194613	     -5.57168254	    -14.81215487	    -58.11130575	      3.09751241	      1.69707660	      8.49425476	      3.94679823	      5.01184096	      1.83759358	     -7.49584457	      6.29665101	     -7.79992350	      3.58217246	     -4.89251641	     -2.53718976	     -1.26205702
